<?xml version="1.0" encoding="UTF-8" standalone="no"?>
<svg width="30px" height="30px" viewBox="0 0 30 30" version="1.1" xmlns="http://www.w3.org/2000/svg" xmlns:xlink="http://www.w3.org/1999/xlink" xmlns:sketch="http://www.bohemiancoding.com/sketch/ns">
    <!-- Generator: Sketch 3.3.2 (12043) - http://www.bohemiancoding.com/sketch -->
    <title>Chat</title>
    <desc>Created with Sketch.</desc>
    <defs></defs>
    <g id="Page-1" stroke="none" stroke-width="1" fill="none" fill-rule="evenodd" sketch:type="MSPage">
        <g id="Desktop-HD" sketch:type="MSArtboardGroup" transform="translate(-559.000000, -157.000000)" fill="#9B9B9B">
            <g id="Comments" sketch:type="MSLayerGroup" transform="translate(559.000000, 156.000000)">
                <g id="Chat" transform="translate(0.000000, 1.000000)" sketch:type="MSShapeGroup">
                    <path d="M19.5980897,15.8651202 L10.265666,15.8651202 C9.75051625,15.8651202 9.33242367,16.2832128 9.33242367,16.7983626 C9.33242367,17.3135124 9.75051625,17.731605 10.265666,17.731605 L19.5980897,17.731605 C20.1132395,17.731605 20.5313321,17.3135124 20.5313321,16.7983626 C20.5313321,16.2832128 20.1132395,15.8651202 19.5980897,15.8651202 L19.5980897,15.8651202 Z M21.4645744,10.265666 L8.3991813,10.265666 C7.88403151,10.265666 7.46593893,10.6837586 7.46593893,11.1989084 C7.46593893,11.7140582 7.88403151,12.1321508 8.3991813,12.1321508 L21.4645744,12.1321508 C21.9797242,12.1321508 22.3978168,11.7140582 22.3978168,11.1989084 C22.3978168,10.6837586 21.9797242,10.265666 21.4645744,10.265666 L21.4645744,10.265666 Z M14.9318779,0 C6.68577271,0 0,5.84953876 0,13.0653931 C0,17.1894216 2.18844725,20.8607605 5.5994542,23.2554726 L5.5994542,29.8637557 L12.1405438,25.8946576 C13.0458255,26.0440252 13.9771648,26.1307863 14.9318779,26.1307863 C23.178959,26.1307863 29.8637557,20.2812475 29.8637557,13.0653931 C29.8637557,5.84953876 23.178959,0 14.9318779,0 L14.9318779,0 Z M14.9318779,24.2643015 C13.8418508,24.2643015 12.7891534,24.1373806 11.7774943,23.9217955 L7.38376481,26.5628348 L7.44256518,22.2344933 C4.07454837,20.2084424 1.86648473,16.8599932 1.86648473,13.0653931 C1.86648473,6.88081427 7.71602349,1.86648473 14.9318779,1.86648473 C22.1477322,1.86648473 27.997271,6.88081427 27.997271,13.0653931 C27.997271,19.249972 22.1477322,24.2643015 14.9318779,24.2643015 L14.9318779,24.2643015 Z" id="Shape"></path>
                </g>
            </g>
        </g>
    </g>
</svg>