<?xml version="1.0" encoding="UTF-8" standalone="no"?>
<svg width="20px" height="20px" viewBox="0 0 20 20" version="1.1" xmlns="http://www.w3.org/2000/svg" xmlns:xlink="http://www.w3.org/1999/xlink" xmlns:sketch="http://www.bohemiancoding.com/sketch/ns">
    <!-- Generator: Sketch 3.3.2 (12043) - http://www.bohemiancoding.com/sketch -->
    <title>Edit</title>
    <desc>Created with Sketch.</desc>
    <defs></defs>
    <g id="Page-1" stroke="none" stroke-width="1" fill="none" fill-rule="evenodd" sketch:type="MSPage">
        <g id="Desktop-HD" sketch:type="MSArtboardGroup" transform="translate(-1181.000000, -161.000000)" fill="#9B9B9B">
            <g id="Rectangle-7-+-Search-Copy" sketch:type="MSLayerGroup" transform="translate(1156.000000, 145.000000)">
                <g id="Edit" transform="translate(25.000000, 16.000000)" sketch:type="MSShapeGroup">
                    <path d="M12.4341399,3.34440228 L16.5018147,7.42747628 L6.20540643,17.7629602 L2.14003781,13.6798861 L12.4341399,3.34440228 L12.4341399,3.34440228 Z M19.5883932,2.35965844 L17.7743667,0.538747628 C17.0733081,-0.164971537 15.9349338,-0.164971537 15.2314934,0.538747628 L13.4938374,2.2829981 L17.5615123,6.36611006 L19.5883932,4.331537 C20.1321361,3.7856926 20.1321361,2.9054649 19.5883932,2.35965844 L19.5883932,2.35965844 Z M0.011342155,19.4189753 C-0.06268431,19.7533966 0.238109641,20.053055 0.571304348,19.9717268 L5.10404537,18.8685389 L1.03867675,14.7854649 L0.011342155,19.4189753 L0.011342155,19.4189753 Z" id="Shape"></path>
                </g>
            </g>
        </g>
    </g>
</svg>