<?xml version="1.0" encoding="UTF-8" standalone="no"?>
<svg width="20px" height="19px" viewBox="0 0 20 19" version="1.1" xmlns="http://www.w3.org/2000/svg" xmlns:xlink="http://www.w3.org/1999/xlink" xmlns:sketch="http://www.bohemiancoding.com/sketch/ns">
    <!-- Generator: Sketch 3.3.2 (12043) - http://www.bohemiancoding.com/sketch -->
    <title>github10</title>
    <desc>Created with Sketch.</desc>
    <defs></defs>
    <g id="Page-1" stroke="none" stroke-width="1" fill="none" fill-rule="evenodd" sketch:type="MSPage">
        <g id="Desktop-HD" sketch:type="MSArtboardGroup" transform="translate(-226.000000, -353.000000)" fill="#9B9B9B">
            <g id="Jane-Smith-+-July-24,-2015-Copy-3" sketch:type="MSLayerGroup" transform="translate(226.750000, 297.500000)">
                <g id="github10" transform="translate(0.000000, 55.805579)" sketch:type="MSShapeGroup">
                    <path d="M17.7073075,4.59746853 C16.8586697,3.18784615 15.7075467,2.07184615 14.2536355,1.24921678 C12.799508,0.426545455 11.2120342,0.0153146853 9.49008884,0.0153146853 C7.76835991,0.0153146853 6.18036674,0.426671329 4.72654214,1.24921678 C3.27250114,2.0718042 2.12142141,3.18784615 1.2727836,4.59746853 C0.424275626,6.00704895 0,7.54632168 0,9.21524476 C0,11.22 0.60332574,13.0227273 1.81028018,14.6238881 C3.01710478,16.2251748 4.57614351,17.3332028 6.48726651,17.9480979 C6.70972665,17.9881259 6.87440774,17.959972 6.98148292,17.8643497 C7.08860137,17.7686014 7.14209567,17.6486853 7.14209567,17.5051049 C7.14209567,17.4811469 7.13997494,17.2656084 7.13586333,16.8582378 C7.13162187,16.4508671 7.12963098,16.0954825 7.12963098,15.7922517 L6.84541002,15.8399161 C6.6641959,15.8720979 6.43558998,15.8857343 6.15959226,15.8818741 C5.88372437,15.8781399 5.59733941,15.8501119 5.30082688,15.798 C5.00418451,15.7463497 4.72827335,15.6265594 4.47287699,15.4388811 C4.21761048,15.2512028 4.03639636,15.0055385 3.9292779,14.7022657 L3.80571298,14.4266014 C3.7233508,14.2430769 3.59368337,14.0392028 3.41653759,13.8157343 C3.2393918,13.5920559 3.06025513,13.4404196 2.879041,13.3605734 L2.79252392,13.3005315 C2.73487472,13.2606294 2.68138041,13.2125035 2.63191116,13.1566573 C2.58248519,13.1008112 2.54548064,13.0449231 2.52076765,12.988951 C2.49601139,12.9329371 2.5165262,12.886993 2.58252847,12.850951 C2.64853075,12.8149091 2.76781093,12.7974126 2.94088838,12.7974126 L3.18793166,12.8332028 C3.35269932,12.8652168 3.55650569,12.9608392 3.79961048,13.1206573 C4.04258542,13.2803497 4.24232346,13.487958 4.39886788,13.7433986 C4.58843508,14.0709231 4.8168246,14.3204895 5.08468565,14.4922238 C5.3523303,14.663958 5.62218223,14.7496783 5.89398178,14.7496783 C6.16578132,14.7496783 6.40053303,14.7297063 6.59832346,14.689972 C6.79589749,14.650028 6.98126651,14.589986 7.15434396,14.5101818 C7.22848292,13.9748811 7.43034169,13.5636503 7.75974715,13.2761958 C7.29024374,13.2283636 6.86813212,13.1563217 6.4931959,13.0605315 C6.11847608,12.9646154 5.73124829,12.808951 5.33177221,12.5931189 C4.93207973,12.3775804 4.60051025,12.1099301 4.33697722,11.7906294 C4.07340091,11.4711608 3.85708656,11.0517483 3.68833713,10.5327692 C3.51950114,10.0135804 3.4350615,9.41467133 3.4350615,8.73587413 C3.4350615,7.76937063 3.76052847,6.94690909 4.41133257,6.26802797 C4.10646697,5.5413986 4.13524829,4.72682517 4.4977631,3.82439161 C4.7366697,3.75243357 5.09096128,3.80643357 5.56046469,3.98605594 C6.03005467,4.16576224 6.37387244,4.31970629 6.59226424,4.44734266 C6.81065604,4.57493706 6.98563781,4.68306294 7.11746925,4.77075524 C7.88374487,4.56318881 8.67451708,4.45938462 9.49000228,4.45938462 C10.3054875,4.45938462 11.0964328,4.56318881 11.8627517,4.77075524 L12.3322984,4.48338462 C12.6533941,4.29163636 13.0325718,4.11591608 13.4689226,3.95618182 C13.905533,3.79653147 14.2393964,3.75255944 14.4701663,3.82451748 C14.8407312,4.72699301 14.873754,5.54152448 14.5688018,6.26815385 C15.2195626,6.94703497 15.5451595,7.76970629 15.5451595,8.736 C15.5451595,9.4147972 15.4604169,10.0155944 15.2918405,10.5387692 C15.1230478,11.062028 14.9048724,11.481021 14.6372278,11.7966294 C14.3692802,12.1121958 14.03559,12.3777483 13.6361139,12.5932448 C13.2365513,12.8089091 12.8491936,12.9645734 12.4744738,13.0604895 C12.0995809,13.1564056 11.6774692,13.2284895 11.2079658,13.2764056 C11.63618,13.6356503 11.8503303,14.2027133 11.8503303,14.9773427 L11.8503303,17.5047692 C11.8503303,17.6483497 11.9018337,17.7682238 12.0049271,17.864014 C12.1078907,17.9596364 12.2704943,17.9877902 12.4929544,17.9477203 C14.4043371,17.3329091 15.9633759,16.2248392 17.1701572,14.6235524 C18.3768087,13.0223916 18.9803508,11.2196643 18.9803508,9.21490909 C18.979918,7.5461958 18.555426,6.00704895 17.7073075,4.59746853 L17.7073075,4.59746853 Z" id="Shape"></path>
                </g>
            </g>
        </g>
    </g>
</svg>