<?xml version="1.0" encoding="utf-8"?>
<!-- Generator: Adobe Illustrator 16.0.0, SVG Export Plug-In . SVG Version: 6.00 Build 0)  -->
<!DOCTYPE svg PUBLIC "-//W3C//DTD SVG 1.1//EN" "http://www.w3.org/Graphics/SVG/1.1/DTD/svg11.dtd">
<svg version="1.1" id="Layer_1" xmlns:sketch="http://www.bohemiancoding.com/sketch/ns"
	 xmlns="http://www.w3.org/2000/svg" xmlns:xlink="http://www.w3.org/1999/xlink" x="0px" y="0px" width="31px" height="27px"
	 viewBox="0 0 31 27" enable-background="new 0 0 31 27" xml:space="preserve">
<title>Heart</title>
<desc>Created with Sketch.</desc>
<g id="Page-1" sketch:type="MSPage">
	<g id="Desktop-HD" transform="translate(-363.000000, -158.000000)" sketch:type="MSArtboardGroup">
		<g id="Heart" transform="translate(363.000000, 156.000000)" sketch:type="MSLayerGroup">
			<g id="Shape" transform="translate(0.000000, 2.000000)" sketch:type="MSShapeGroup">
				<path fill="#FFA6A6" d="M28.034,2.474C26.438,0.878,24.318,0,22.062,0c-2.256,0-4.377,0.878-5.974,2.474L15.302,3.26
					l-0.786-0.786C12.92,0.878,10.799,0,8.543,0C6.287,0,4.165,0.878,2.569,2.474c-3.293,3.294-3.293,8.654,0,11.946l11.803,11.803
					c0.193,0.193,0.433,0.312,0.684,0.358c0.084,0.017,0.169,0.024,0.254,0.024c0.334,0,0.668-0.128,0.921-0.383L28.034,14.42
					C31.329,11.127,31.329,5.768,28.034,2.474L28.034,2.474z M26.189,12.575L15.302,23.463L4.415,12.575
					c-2.276-2.276-2.276-5.979,0-8.256C5.517,3.216,6.984,2.61,8.543,2.61s3.025,0.606,4.127,1.709l1.709,1.71
					c0.49,0.489,1.355,0.489,1.846,0l1.709-1.71c1.102-1.103,2.568-1.709,4.127-1.709c1.56,0,3.025,0.606,4.128,1.709
					C28.466,6.596,28.466,10.299,26.189,12.575L26.189,12.575z"/>
			</g>
		</g>
	</g>
</g>
<title>Heart</title>
<desc>Created with Sketch.</desc>
<g id="Page-1_1_" sketch:type="MSPage">
	<g id="Desktop-HD_1_" transform="translate(-363.000000, -158.000000)" sketch:type="MSArtboardGroup">
		<g id="Heart_1_" transform="translate(363.000000, 156.000000)" sketch:type="MSLayerGroup">
			<g id="Shape_1_" transform="translate(0.000000, 2.000000)" sketch:type="MSShapeGroup">
				<path fill="#FFA6A6" d="M28.034,2.474C26.438,0.878,24.318,0,22.062,0c-2.256,0-4.377,0.878-5.974,2.474L15.302,3.26
					l-0.786-0.786C12.92,0.878,10.799,0,8.543,0C6.287,0,4.165,0.878,2.569,2.474c-3.293,3.294-3.293,8.654,0,11.946l11.803,11.803
					c0.193,0.193,0.433,0.312,0.684,0.358c0.084,0.017,0.169,0.024,0.254,0.024c0.334,0,0.668-0.128,0.921-0.383L28.034,14.42
					C31.329,11.127,31.329,5.768,28.034,2.474L28.034,2.474z M26.189,12.575L15.302,23.463L4.415,12.575
					c-2.276-2.276-2.276-5.979,0-8.256C5.517,3.216,6.984,2.61,8.543,2.61s3.025,0.606,4.127,1.709l1.709,1.71
					c0.49,0.489,1.355,0.489,1.846,0l1.709-1.71c1.102-1.103,2.568-1.709,4.127-1.709c1.56,0,3.025,0.606,4.128,1.709
					C28.466,6.596,28.466,10.299,26.189,12.575L26.189,12.575z"/>
			</g>
		</g>
	</g>
</g>
<g id="Page-1_2_" sketch:type="MSPage">
	<g id="Desktop-HD_2_" transform="translate(-363.000000, -158.000000)" sketch:type="MSArtboardGroup">
		<g id="Heart_2_" transform="translate(363.000000, 156.000000)" sketch:type="MSLayerGroup">
			<g id="Shape_2_" transform="translate(0.000000, 2.000000)" sketch:type="MSShapeGroup">
				<path fill="#FFA6A6" d="M26.756,3.561c-1.436-1.435-3.343-2.225-5.373-2.225c-2.029,0-3.938,0.79-5.374,2.225l-0.707,0.708
					l-0.707-0.708c-1.436-1.435-3.344-2.225-5.374-2.225c-2.03,0-3.938,0.79-5.374,2.225c-2.963,2.963-2.963,7.785,0,10.748
					l10.619,10.617c0.173,0.174,0.389,0.281,0.615,0.322c0.076,0.016,0.152,0.021,0.229,0.021c0.3,0,0.6-0.115,0.828-0.344
					l10.618-10.617C29.721,11.345,29.721,6.524,26.756,3.561L26.756,3.561z M25.097,12.648l-9.794,9.795l-9.794-9.795
					c-2.048-2.047-2.048-5.379,0-7.428C6.5,4.229,7.819,3.683,9.222,3.683c1.403,0,2.721,0.546,3.713,1.537l1.539,1.539
					c0.44,0.439,1.219,0.439,1.66,0l1.538-1.539c0.99-0.991,2.31-1.537,3.712-1.537c1.403,0,2.722,0.546,3.714,1.537
					C27.145,7.269,27.145,10.601,25.097,12.648L25.097,12.648z"/>
			</g>
		</g>
	</g>
</g>
</svg>
