<?xml version="1.0" encoding="UTF-8" standalone="no"?>
<svg width="31px" height="27px" viewBox="0 0 31 27" version="1.1" xmlns="http://www.w3.org/2000/svg" xmlns:xlink="http://www.w3.org/1999/xlink" xmlns:sketch="http://www.bohemiancoding.com/sketch/ns">
    <!-- Generator: Sketch 3.3.2 (12043) - http://www.bohemiancoding.com/sketch -->
    <title>Heart</title>
    <desc>Created with Sketch.</desc>
    <defs></defs>
    <g id="Page-1" stroke="none" stroke-width="1" fill="none" fill-rule="evenodd" sketch:type="MSPage">
        <g id="Desktop-HD" sketch:type="MSArtboardGroup" transform="translate(-363.000000, -158.000000)" fill="#FFA6A6">
            <g id="Heart" sketch:type="MSLayerGroup" transform="translate(363.000000, 156.000000)">
                <g transform="translate(0.000000, 2.000000)" id="Shape" sketch:type="MSShapeGroup">
                    <path fill="#FFA6A6" d="M27.9359918,2.47350439 C26.340563,0.877995363 24.2196369,0 21.9632642,0 C19.7065706,0 17.5854038,0.877995363 15.9894133,2.47350439 L15.2032135,3.2598647 L14.4170136,2.47350439 C12.8215046,0.877995363 10.6998563,5.70145519e-16 8.44364417,5.70145519e-16 C6.18751224,5.70145519e-16 4.06570348,0.877995363 2.47035494,2.47350439 C-0.823451646,5.76763194 -0.823451646,11.1273194 2.47035494,14.4201631 L14.2729813,26.2228697 C14.4659606,26.4165711 14.7062017,26.5351671 14.957195,26.5808241 C15.0413677,26.597434 15.1260218,26.6051371 15.2108364,26.6051371 C15.5447185,26.6051371 15.8791624,26.4777949 16.1334456,26.2228697 L27.936072,14.4201631 C31.2300391,11.1273194 31.2300391,5.76763194 27.9359918,2.47350439 L27.9359918,2.47350439 Z M26.0907732,12.5750248 L15.2032937,23.4626648 L4.31557349,12.5750248 C2.0393011,10.2990734 2.0393011,6.59595822 4.31557349,4.31880318 C5.41816298,3.21637417 6.88464473,2.60999407 8.44364417,2.60999407 C10.0028041,2.60999407 11.4688846,3.21637417 12.5710729,4.31880318 L14.2806042,6.02889614 C14.7706351,6.51820483 15.6364338,6.51820483 16.1263844,6.02889614 L17.8352738,4.31880318 C18.9375423,3.21637417 20.4037031,2.60999407 21.9633445,2.60999407 C23.5225044,2.60999407 24.9885047,3.21637417 26.0907732,4.31880318 C28.3672863,6.59595822 28.3672863,10.2989931 26.0907732,12.5750248 L26.0907732,12.5750248 Z"></path>
                </g>
            </g>
        </g>
    </g>
</svg>