<?xml version="1.0" encoding="UTF-8" standalone="no"?>
<svg width="25px" height="20px" viewBox="0 0 25 20" version="1.1" xmlns="http://www.w3.org/2000/svg" xmlns:xlink="http://www.w3.org/1999/xlink" xmlns:sketch="http://www.bohemiancoding.com/sketch/ns">
    <!-- Generator: Sketch 3.3.2 (12043) - http://www.bohemiancoding.com/sketch -->
    <title>Share</title>
    <desc>Created with Sketch.</desc>
    <defs></defs>
    <g id="Page-1" stroke="none" stroke-width="1" fill="none" fill-rule="evenodd" sketch:type="MSPage">
        <g id="Desktop-HD" sketch:type="MSArtboardGroup" transform="translate(-1029.000000, -161.000000)" fill="#9B9B9B">
            <g id="Rectangle-7-+-Search-Copy-2" sketch:type="MSLayerGroup" transform="translate(1008.000000, 145.000000)">
                <g id="square258" transform="translate(21.000000, 16.000000)" sketch:type="MSShapeGroup">
                    <g id="Share">
                        <path d="M21.7958081,1.54323232 L11.0828283,1.54323232 C12.1748485,2.1840404 13.1159091,3.04469697 13.8534848,4.06373737 L21.7958081,4.06373737 C22.1592424,4.06373737 22.4555556,4.35984848 22.4555556,4.72333333 L22.4555556,16.7769697 C22.4555556,17.1405556 22.1592929,17.4367677 21.7958081,17.4367677 L9.74212121,17.4367677 C9.37858586,17.4367677 9.08242424,17.1405556 9.08242424,16.7769697 L9.08242424,8.74611111 C8.7780303,8.58954545 8.45969697,8.45747475 8.13065657,8.35560606 C7.93782828,8.94974747 7.51929293,9.4559596 6.94338384,9.75868687 C6.82267677,9.82191919 6.69151515,9.86040404 6.56186869,9.90232323 L6.56186869,16.7770202 C6.56186869,18.530404 7.98863636,19.9573737 9.74207071,19.9573737 L21.7957576,19.9573737 C23.5491919,19.9573737 24.9760101,18.530404 24.9760101,16.7770202 L24.9760101,4.72333333 C24.9760101,2.97 23.5492424,1.54323232 21.7958081,1.54323232 L21.7958081,1.54323232 Z" id="XMLID_32_"></path>
                        <path d="M6.56752525,6.41358586 C9.16444444,6.47590909 11.4356061,7.8420202 12.7417677,9.89161616 C12.8615152,10.0787374 13.0667172,10.1869697 13.28,10.1869697 C13.3381818,10.1869697 13.3972727,10.1787879 13.4547475,10.1624242 C13.7263131,10.0843939 13.9150505,9.83828283 13.9183333,9.55606061 L13.9183333,9.47979798 C13.9183333,5.38141414 10.6429293,2.05439394 6.56848485,1.95671717 L6.56848485,0.76540404 C6.56848485,0.488030303 6.41505051,0.234494949 6.17055556,0.10489899 C6.06146465,0.0473737374 5.94161616,0.0186868687 5.82262626,0.0186868687 C5.67414141,0.0186868687 5.52727273,0.0631313131 5.40090909,0.149191919 L0.340959596,3.61242424 C0.15969697,3.73636364 0.0514141414,3.94146465 0.0505050505,4.16131313 C0.0496464646,4.38040404 0.157222222,4.58646465 0.337727273,4.71191919 L5.39681818,8.21954545 C5.5239899,8.30808081 5.67252525,8.35242424 5.82176768,8.35242424 C5.94070707,8.35242424 6.05893939,8.32449495 6.16808081,8.26777778 C6.41328283,8.1390404 6.56752525,7.88393939 6.56752525,7.60656566 L6.56752525,6.41358586 L6.56752525,6.41358586 Z" id="XMLID_31_"></path>
                    </g>
                </g>
            </g>
        </g>
    </g>
</svg>