<?xml version="1.0" encoding="UTF-8" standalone="no"?>
<svg width="27px" height="27px" viewBox="0 0 27 27" version="1.1" xmlns="http://www.w3.org/2000/svg" xmlns:xlink="http://www.w3.org/1999/xlink" xmlns:sketch="http://www.bohemiancoding.com/sketch/ns">
    <!-- Generator: Sketch 3.3.2 (12043) - http://www.bohemiancoding.com/sketch -->
    <title>User</title>
    <desc>Created with Sketch.</desc>
    <defs></defs>
    <g id="Page-1" stroke="none" stroke-width="1" fill="none" fill-rule="evenodd" sketch:type="MSPage">
        <g id="Desktop-HD" sketch:type="MSArtboardGroup" transform="translate(-469.000000, -159.000000)" fill="#9B9B9B">
            <g id="Contributors" sketch:type="MSLayerGroup" transform="translate(469.000000, 156.000000)">
                <g id="User" transform="translate(0.000000, 3.000000)" sketch:type="MSShapeGroup">
                    <path d="M13.3601012,18.3701392 C17.5042377,18.3701392 20.8751582,14.248548 20.8751582,9.18506961 C20.8751582,4.12159124 17.5034026,0 13.3601012,0 C11.3168408,0 9.40718129,0.980297429 7.98433051,2.75969591 C6.60406505,4.48398398 5.8450443,6.76689128 5.8450443,9.18590462 C5.8450443,14.248548 9.21596484,18.3701392 13.3601012,18.3701392 L13.3601012,18.3701392 Z M13.3601012,1.67084766 C16.5823907,1.67084766 19.2051455,5.04176821 19.2051455,9.18590462 C19.2051455,13.329206 16.5823907,16.7009616 13.3601012,16.7009616 C10.1378118,16.7009616 7.51505695,13.329206 7.51422195,9.18590462 C7.51422195,5.04176821 10.1369768,1.67084766 13.3601012,1.67084766 L13.3601012,1.67084766 Z M19.2051455,16.7001266 C18.743387,16.7001266 18.3701392,17.0733744 18.3701392,17.5351329 C18.3701392,17.9968914 18.743387,18.3701392 19.2051455,18.3701392 C22.427435,18.3701392 25.0501898,20.9928941 25.0501898,24.2151835 C25.0501898,24.675272 24.675272,25.0501898 24.2151835,25.0501898 L2.50501898,25.0501898 C2.0449305,25.0501898 1.67001266,24.675272 1.67001266,24.2151835 C1.67001266,20.9928941 4.29276753,18.3701392 7.51505695,18.3701392 C7.97681545,18.3701392 8.35006328,17.9968914 8.35006328,17.5351329 C8.35006328,17.0733744 7.97681545,16.7001266 7.51505695,16.7001266 C3.37092055,16.7001266 0,20.0710471 0,24.2151835 C0,25.596284 1.12391852,26.7202025 2.50501898,26.7202025 L24.2151835,26.7202025 C25.596284,26.7202025 26.7202025,25.596284 26.7202025,24.2151835 C26.7202025,20.0718821 23.349282,16.7001266 19.2051455,16.7001266 L19.2051455,16.7001266 Z" id="Shape"></path>
                </g>
            </g>
        </g>
    </g>
</svg>