<?xml version="1.0" encoding="iso-8859-1"?>
<!-- Generator: Adobe Illustrator 16.0.0, SVG Export Plug-In . SVG Version: 6.00 Build 0)  -->
<!DOCTYPE svg PUBLIC "-//W3C//DTD SVG 1.1//EN" "http://www.w3.org/Graphics/SVG/1.1/DTD/svg11.dtd">
<svg version="1.1" id="Capa_1" xmlns="http://www.w3.org/2000/svg" xmlns:xlink="http://www.w3.org/1999/xlink" x="0px" y="0px"
	 width="595.205px" height="595.205px" viewBox="0 0 595.205 595.205" style="enable-background:new 0 0 595.205 595.205;"
	 xml:space="preserve">
<g>
	<g>
		<path d="M585.227,300.256c-11.391,4.741-23.321,8.193-35.026,12.191c-0.494-0.877-0.987-1.759-1.481-2.636
			c9.723-6.993,19.115-14.525,29.286-20.796c6.884-4.239,7.059-7.695,1.008-11.991c-9.653-6.854-19.143-14.08-29.392-19.939
			c-40.335-23.06-81.771-43.742-126.958-55.872c-3.305-0.885-6.63-2.529-9.355-4.602c-10.853-8.246-21.469-16.801-33.737-26.479
			c-0.534,4.312-0.755,6.095-1.073,8.662c-7.226-4.994-14.17-9.796-22.979-15.887c1.604,6.353,2.648,10.506,3.885,15.406
			c-7.308-4.174-13.647-7.792-19.984-11.412c-0.587,0.534-1.179,1.069-1.767,1.604c1.229,3.227,2.456,6.458,4.243,11.163
			c-7.817-4.239-14.141-7.67-22.611-12.264c1.926,6.022,3.068,9.584,4.762,14.872c-6.01-3.583-10.861-6.475-18.218-10.861
			c3.411,7.486,5.647,12.391,8.956,19.653c-9.384-4.296-16.532-7.568-24.855-11.375c0.4,3.855,0.628,6.055,0.926,8.931
			c-3.635-1.195-6.458-2.125-10.853-3.574c3.048,5.104,5.157,8.633,8.34,13.966c-3.456-1-5.137-1.13-6.418-1.914
			c-11.498-7.062-11.354-6.716-27.336-1.616c-3.33,1.061-8.911-0.739-11.783-3.178c-13.084-11.122-25.998-4.651-38.462,0.085
			c-21.681,8.242-43.774,15.786-61.91,31.331c-10.828,9.282-14.961,16.891-16.887,37.03c6.483,0.608,12.979,1.22,20.841,1.958
			c-13.962,5.68-26.802,10.449-40.408,3.896c-12.587-6.063-24.86-12.787-37.153-19.445c-15.467-8.376-30.604-17.393-46.324-25.263
			C16.716,219.003,9.69,218.583,0,216.253c16.001,27.907,2.199,53.097,2.101,78.34c-0.065,16.05,2.509,31.069,6.467,46.398
			c3.403,13.17,4.19,26.896-4.264,39.841c8.029,5.353,16.777,3.138,23.317-0.702c18.16-10.665,36.153-21.909,52.828-34.729
			c22.036-16.937,45.312-26.051,73.191-19.307c0.628,0.151,1.146,0.755,3.636,2.477c-8.532-0.73-15.06-1.289-21.478-1.836
			c-5.243,16.397,1.089,38.78,13.648,49.188c26.646,22.089,45.145,22.905,73.265,2.415c33.929-24.721,27.381-23.599,68.744-12.889
			c28.552,7.394,57.467,8.858,86.708,6.843c1.252-0.086,2.529,0.105,5.896,0.277c-3.321,2.293-4.835,4.092-6.639,4.464
			c-13.031,2.676-13.896,12.312-11.954,22.309c1.885,9.719,4.37,19.683,8.829,28.389c2.48,4.839,10.008,7.263,14.235-0.098
			c8.739-15.214,18.025-30.277,24.88-46.345c3.61-8.458,7.267-11.424,16.3-13.085c22.889-4.202,45.553-9.918,67.993-16.16
			c23.174-6.446,46.051-14.003,68.895-21.563c7.458-2.468,15.148-5.491,21.326-10.134c3.9-2.93,6.765-9.181,7.229-14.207
			C595.664,300.75,592.42,297.266,585.227,300.256z"/>
	</g>
</g>
<g>
</g>
<g>
</g>
<g>
</g>
<g>
</g>
<g>
</g>
<g>
</g>
<g>
</g>
<g>
</g>
<g>
</g>
<g>
</g>
<g>
</g>
<g>
</g>
<g>
</g>
<g>
</g>
<g>
</g>
</svg>
