<svg xmlns="http://www.w3.org/2000/svg" class="iconic iconic-bell" width="128" height="128" viewBox="0 0 128 128"><title class="iconic-metadata">Bell</title><g class="iconic-bell-lg iconic-container iconic-lg" data-width="112" data-height="128" transform="translate(8)"><circle cx="56" cy="6" r="6" class="iconic-bell-crown iconic-property-fill"/><path d="M100 82.033C85.172 71.813 84 57.693 84 42.1V38c0-15.463-12.536-28-28-28S28 22.538 28 38v4.1c0 15.594-1.172 29.713-16 39.933C4.586 87.143 0 94.203 0 102v2h112v-2c0-7.798-4.586-14.857-12-19.967z" class="iconic-bell-body iconic-property-fill"/><path d="M41.174 106c-.75 1.854-1.174 3.877-1.174 6 0 8.836 7.163 16 16 16s16-7.163 16-16c0-2.123-.423-4.146-1.174-6H41.174z" class="iconic-bell-clapper iconic-property-accent iconic-property-fill"/></g></svg>