<svg xmlns="http://www.w3.org/2000/svg" class="iconic iconic-cart" width="128" height="128" viewBox="0 0 128 128"><title class="iconic-metadata">Cart</title><defs><clipPath id="a"><path d="M0 0v106h22.695C19.86 104.008 18 100.72 18 97c0-6.065 4.935-11 11-11s11 4.935 11 11c0 3.72-1.86 7.008-4.695 9h61.39c-2.834-1.992-4.694-5.28-4.694-9 0-6.065 4.936-11 11-11s11 4.935 11 11c0 3.72-1.86 7.008-4.694 9H128V0H0z"/></clipPath><clipPath id="b"><path d="M0 0v28h5.058C4.408 27.364 4 26.48 4 25.5 4 23.57 5.57 22 7.5 22s3.5 1.57 3.5 3.5c0 .98-.407 1.864-1.058 2.5h14.116c-.65-.636-1.058-1.52-1.058-2.5 0-1.93 1.57-3.5 3.5-3.5s3.5 1.57 3.5 3.5c0 .98-.407 1.864-1.058 2.5H32V0H0z"/></clipPath></defs><g class="iconic-cart-lg iconic-container iconic-lg" data-width="128" data-height="106" transform="translate(0 11)"><path d="M31.176 65.115l-14.352-50.23c-.455-1.594.52-2.886 2.176-2.886h106c1.657 0 2.72 1.312 2.37 2.932L116.63 65.065c-.347 1.62-1.972 2.933-3.63 2.933H35c-1.656 0-3.368-1.29-3.823-2.885z" class="iconic-cart-basket iconic-property-fill"/><circle cx="29" cy="97" r="9" class="iconic-cart-wheel iconic-cart-wheel-back iconic-property-fill"/><circle cx="103" cy="97" r="9" class="iconic-cart-wheel iconic-cart-wheel-front iconic-property-fill"/><path clip-path="url(#a)" stroke="#000" stroke-width="4" d="M106 92H24.75c-.414 0-.62-.31-.462-.692l9.423-22.615c.16-.382.197-1.015.082-1.413L15.207 2.72c-.115-.397-.543-.72-.957-.72H3" class="iconic-cart-body iconic-property-stroke" fill="none"/><circle cx="3" cy="3" r="3" class="iconic-cart-handle iconic-property-fill"/></g></svg>