<svg xmlns="http://www.w3.org/2000/svg" class="iconic iconic-circle-x" width="128" height="128" viewBox="0 0 128 128"><title class="iconic-metadata">Circle X</title><defs><clipPath id="a"><path d="M0 0v128h128V0H0zm90.657 85L85 90.657l-21-21-21 21L37.343 85l21-21-21-21L43 37.343l21 21 21-21L90.657 43l-21 21 21 21z"/></clipPath><clipPath id="b"><path d="M0 0v32h32V0H0zm23.12 21L21 23.12l-5-5-5 5L8.88 21l5-5-5-5L11 8.88l5 5 5-5L23.12 11l-5 5 5 5z"/></clipPath><clipPath id="c"><path d="M0 0v16h16V0H0zm11.414 10L10 11.414l-2-2-2 2L4.586 10l2-2-2-2L6 4.586l2 2 2-2L11.414 6l-2 2 2 2z"/></clipPath></defs><circle cx="64" cy="64" r="64" clip-path="url(#a)" class="iconic-circle-x-lg iconic-container iconic-lg iconic-circle-x-body iconic-property-fill" data-width="128" data-height="128"/></svg>