<svg xmlns="http://www.w3.org/2000/svg" class="iconic iconic-circle-check" width="128" height="128" viewBox="0 0 128 128"><title class="iconic-metadata">Circle Check</title><defs><clipPath id="a"><path d="M0 0v128h128V0H0zm54.196 92.2L30.343 68.35 36 62.69l17.89 17.892 39.814-44.23 5.946 5.352-45.453 50.498z"/></clipPath><clipPath id="b"><path d="M0 0v32h32V0H0zm13.052 24.173L6.88 18 9 15.88l3.948 3.947 9.95-10.946 2.22 2.02-12.066 13.273z"/></clipPath><clipPath id="c"><path d="M0 0v16h16V0H0zm7 11.414L3.586 8 5 6.586l2 2 4-4L12.414 6 7 11.414z"/></clipPath></defs><circle cx="64" cy="64" r="64" clip-path="url(#a)" class="iconic-circle-check-lg iconic-container iconic-lg iconic-circle-check-body iconic-property-fill" data-width="128" data-height="128"/></svg>