<svg xmlns="http://www.w3.org/2000/svg" class="iconic iconic-cog" width="128" height="128" viewBox="0 0 128 128"><title class="iconic-metadata">Cog</title><path d="M128 73.875V54l-14.323-3.58c-1.156-4.24-2.84-8.258-4.98-11.987l7.54-12.706-14.054-14.054-12.666 7.6c-3.73-2.134-7.75-3.815-11.992-4.967L73.875-.002H53.998L50.417 14.32c-4.24 1.157-8.257 2.842-11.986 4.98l-12.706-7.54-14.054 14.054 7.6 12.666c-2.134 3.73-3.815 7.75-4.967 11.992l-14.308 3.65V74l14.323 3.58c1.156 4.24 2.84 8.258 4.98 11.987l-7.54 12.706 14.054 14.055 12.666-7.6c3.73 2.134 7.75 3.815 11.992 4.967L54.122 128H74l3.58-14.323c4.24-1.156 8.258-2.84 11.987-4.98l12.705 7.54 14.054-14.054-7.6-12.666c2.134-3.73 3.815-7.75 4.967-11.992l14.31-3.65zM64 98c-18.778 0-34-15.222-34-34s15.222-34 34-34 34 15.222 34 34-15.222 34-34 34z" class="iconic-cog-lg iconic-container iconic-lg iconic-cog-body iconic-property-fill" data-width="128" data-height="128"/></svg>