<svg xmlns="http://www.w3.org/2000/svg" class="iconic iconic-dashboard" width="128" height="128" viewBox="0 0 128 128"><title class="iconic-metadata">Dashboard</title><defs><clipPath id="a"><path d="M0 0v122h128V0H0zm73.9 73.9C71.256 76.544 67.74 78 64 78s-7.255-1.456-9.9-4.1c-4.01-4.01-25.252-37.145-29.47-43.747-1.01-1.582-.785-3.655.542-4.982.772-.77 1.796-1.17 2.83-1.17.743 0 1.49.205 2.152.628 6.6 4.218 39.736 25.46 43.746 29.47 2.645 2.645 4.1 6.16 4.1 9.9s-1.455 7.256-4.1 9.9z"/></clipPath><clipPath id="b"><path d="M0 0v30h32V0H0zm19.626 19.626c-.885.885-2.06 1.372-3.313 1.372-1.25 0-2.428-.487-3.313-1.372-1.09-1.09-5.745-8.45-7.696-11.565-.495-.79-.378-1.817.28-2.476C5.972 5.198 6.485 5 7 5c.365 0 .734.1 1.062.305 3.126 1.963 10.51 6.642 11.563 7.695 1.796 1.796 1.796 4.83 0 6.625z"/></clipPath><clipPath id="c"><path d="M0 0v15h16V0H0zm9.313 9.313c-.442.442-1.03.686-1.656.686S6 9 6 9L4 8s-1.018-4.396-.706-4.708C3.486 3.1 3.742 3 4 3c.162 0 4 1 4 1l1 2s1.212 2.415.314 3.313z"/></clipPath></defs><g class="iconic-dashboard-lg iconic-container iconic-lg" data-width="128" data-height="122"><path stroke="#000" stroke-width="8" d="M90 121c2.562-1.243 5.204-2.665 7.547-4.247 3.192-2.156 6.165-4.612 8.88-7.327 2.715-2.715 5.17-5.688 7.327-8.88 2.156-3.192 4.014-6.603 5.532-10.192s2.697-7.357 3.496-11.263 1.22-7.95 1.22-12.09-.42-8.187-1.22-12.093-1.978-7.673-3.496-11.263-3.376-7-5.532-10.192-4.612-6.165-7.327-8.88c-2.715-2.715-5.688-5.17-8.88-7.327-3.192-2.156-6.603-4.014-10.192-5.532s-7.357-2.697-11.263-3.496-7.95-1.22-12.092-1.22-8.186.42-12.092 1.22-7.673 1.978-11.263 3.496-7 3.376-10.192 5.532-6.165 4.612-8.88 7.327-5.17 5.688-7.327 8.88-4.014 6.603-5.532 10.192C7.196 47.234 6.017 51 5.218 54.907S3.998 62.857 3.998 67s.42 8.185 1.22 12.09 1.978 7.674 3.496 11.264 3.376 7 5.532 10.192 4.612 6.165 7.327 8.88c2.715 2.715 5.688 5.17 8.88 7.327 2.397 1.62 4.918 2.982 7.544 4.247H90z" class="iconic-dashboard-body iconic-property-stroke" fill="none"/><path clip-path="url(#a)" stroke="#000" stroke-width="4" stroke-linecap="round" d="M32.887 94.78c-3.98-3.982-7.203-8.723-9.43-13.987C21.23 75.53 20 69.74 20 63.666s1.23-11.863 3.457-17.127 5.448-10.006 9.43-13.987c3.98-3.98 8.722-7.203 13.986-9.43S57.925 19.665 64 19.665s11.863 1.23 17.127 3.458c5.264 2.227 10.005 5.448 13.986 9.43 3.98 3.98 7.203 8.722 9.43 13.986C106.77 51.802 108 57.59 108 63.665s-1.23 11.863-3.457 17.127c-2.227 5.264-5.448 10.005-9.43 13.986" class="iconic-dashboard-values iconic-property-accent iconic-property-stroke" fill="none" transform="translate(0 3)"/><path d="M71.07 59.93C67.167 56.023 28 31 28 31s25.024 39.166 28.93 43.07c3.904 3.906 10.236 3.906 14.14 0 3.906-3.904 3.906-10.236 0-14.14zM64 69c-1.105 0-2-.895-2-2s.895-2 2-2 2 .895 2 2-.895 2-2 2z" class="iconic-dashboard-needle iconic-property-fill"/></g></svg>