<svg xmlns="http://www.w3.org/2000/svg" class="iconic iconic-document" width="128" height="128" viewBox="0 0 128 128"><title class="iconic-metadata">Document</title><defs><clipPath id="a"><path d="M70 28V0H0v128h98V28H70zM12 58h60v4H12v-4zm0 36h68v4H12v-4zm74 22H12v-4h74v4zm0-36H12v-4h74v4zm0-36H12v-4h74v4z"/></clipPath><clipPath id="b"><path d="M17 8V0H0v32h25V8h-8zM3 15h15v1H3v-1zm0 8h17v1H3v-1zm19 5H3v-1h19v1zm0-8H3v-1h19v1zm0-8H3v-1h19v1z"/></clipPath><clipPath id="c"><path d="M8 0H0v16h13V5H8V0zM2 4h4v1H2V4zm0 6h7v1H2v-1zm9 4H2v-1h9v1zm0-7v1H2V7h9z"/></clipPath></defs><g class="iconic-document-lg iconic-container iconic-lg" data-width="98" data-height="128"><path clip-path="url(#a)" d="M96.5 128h-95c-.828 0-1.5-.672-1.5-1.5V1.5C0 .672.672 0 1.5 0h95c.828 0 1.5.672 1.5 1.5v125c0 .828-.672 1.5-1.5 1.5z" class="iconic-document-page iconic-property-fill" transform="translate(15)"/><path class="iconic-document-flap iconic-property-fill" d="M113 24L89 0v24z"/></g></svg>