<svg xmlns="http://www.w3.org/2000/svg" data-icon="envelope" width="128" height="128" class="iconic iconic-envelope" viewBox="0 0 128 128"><title>Envelope</title><g class="iconic-lg iconic-container iconic-envelope-closed" data-width="128" data-height="84"><path d="M65.3 65.3l61.3-30.7c.7-.4 1.3-1.3 1.3-2.2v-9c0-.8-.7-1.5-1.5-1.5H1.5c-.8.1-1.5.8-1.5 1.6v9c0 .8.6 1.8 1.3 2.2l61.3 30.7c.8.3 2 .3 2.7-.1z" class="iconic-envelope-closed-envelope-flap iconic-property-accent iconic-property-fill"/><path d="M62.7 73.3L1.3 42.7c-.7-.4-1.3 0-1.3.8v61c0 .8.7 1.5 1.5 1.5h125c.8 0 1.5-.7 1.5-1.5v-61c0-.8-.6-1.2-1.3-.8L65.3 73.3c-.7.4-1.9.4-2.6 0z" class="iconic-envelope-closed-envelope-body iconic-property-fill"/></g><script type="application/ecmascript">//<![CDATA[
var iconicApis=window._Iconic?window._Iconic.smartIconApis:{};iconicApis["envelope"]=iconicApis["envelope"]||function(t){var e=function(e){t.setAttribute("data-state",e);var i,r,a=t.querySelectorAll(".iconic-envelope-closed"),n=t.querySelectorAll(".iconic-envelope-open");i=r="none","open"===e?i="inline":r="inline";for(var o=0;o<a.length;o++)a[o].setAttribute("display",r),n[o].setAttribute("display",i)},i=function(){var i=t.getAttribute("data-state");i&amp;&amp;e(i)};return{update:i,setState:e}};
//]]></script></svg>