<svg xmlns="http://www.w3.org/2000/svg" class="iconic iconic-flag" width="128" height="128" viewBox="0 0 128 128"><title class="iconic-metadata">Flag</title><g class="iconic-flag-lg iconic-container iconic-lg" data-width="98" data-height="128"><path stroke="#000" stroke-width="8" stroke-linecap="square" class="iconic-flag-mast iconic-property-stroke" d="M19 12v112" fill="none"/><path d="M15 4c0-2.21 1.79-4 4-4s4 1.79 4 4v2h-8V4z" class="iconic-flag-mast iconic-flag-mast-top iconic-property-fill"/><path d="M57 13c0-.03.015-.056.017-.086-.002-.03-.017-.055-.017-.086 0-.324.175-.616.343-.828l1.314-2c.208-.287.343-.505.343-.828 0-.324-.13-.617-.343-.828-.212-.212-.505-.343-.828-.343H25v52h32V13z" class="iconic-flag-back iconic-property-accent iconic-property-fill"/><path d="M113 14H59v51c0 .552.448 1 1 1h53L99 39.89 113 14z" class="iconic-flag-front iconic-property-fill"/></g></svg>