<svg xmlns="http://www.w3.org/2000/svg" class="iconic iconic-home" width="128" height="128" viewBox="0 0 128 128"><title class="iconic-metadata">Home</title><defs><clipPath id="a"><path d="M64 16L16 56l.25 62H54V94h20v24h38V56z"/></clipPath><clipPath id="b"><path d="M16 5L5 15v14h9v-6h4v6h9V15z"/></clipPath></defs><g class="iconic-home-lg iconic-container iconic-lg" data-width="128" data-height="122"><path clip-path="url(#a)" d="M16.006 57.5l.24 63c.002.828.676 1.5 1.505 1.5h92.75c.83 0 1.5-.672 1.5-1.5v-63c0-.828-.515-1.93-1.15-2.46L65.153 16.96c-.636-.53-1.668-.53-2.305 0L17.153 55.04c-.636.53-1.15 1.632-1.147 2.46z" class="iconic-home-wall iconic-property-fill" transform="translate(0 3)"/><path d="M10.5 59h-9c-.828 0-.995-.442-.37-.988L62.87 3.988c.625-.545 1.635-.545 2.26 0l61.74 54.025c.625.545.458.988-.37.988h-9c-.828 0-2.013-.433-2.645-.968L65.145 15.97c-.632-.535-1.658-.535-2.29 0l-49.71 42.062c-.632.535-1.817.97-2.645.97z" class="iconic-home-roof iconic-property-fill"/></g></svg>