<svg xmlns="http://www.w3.org/2000/svg" class="iconic iconic-magnifying-glass" width="128" height="128" viewBox="0 0 128 128"><title class="iconic-metadata">Magnifying Glass</title><defs><clipPath id="a"><path d="M95.707 83.707L89 90.414 87.586 89l6.707-6.707L90 78 78 90l38 38 12-12z"/></clipPath></defs><g class="iconic-magnifying-glass-lg iconic-container iconic-lg" data-width="128" data-height="128"><path stroke="#000" stroke-width="8" class="iconic-magnifying-glass-handle iconic-magnifying-glass-handle-connector iconic-property-stroke" d="M85 85l-7.912-7.912" fill="none"/><path d="M126.94 117.06l-9.88 9.88c-.586.586-1.536.586-2.12 0L79.06 91.06c-.586-.585-.586-1.535 0-2.12l9.88-9.88c.585-.585 1.535-.585 2.12 0l35.88 35.88c.585.586.585 1.535 0 2.12z" clip-path="url(#a)" class="iconic-magnifying-glass-handle iconic-property-fill"/><circle stroke="#000" stroke-width="8" cx="46" cy="46" r="42" class="iconic-magnifying-glass-rim iconic-property-stroke" fill="none"/><path fill="#fff" stroke="#000" stroke-width="2" stroke-linecap="round" d="M13 46c0-18.225 14.775-33 33-33" class="iconic-magnifying-glass-reflection iconic-property-accent iconic-property-stroke"/></g></svg>