<svg xmlns="http://www.w3.org/2000/svg" data-icon="person" width="128" height="128" class="iconic iconic-person" viewBox="0 0 128 128"><title>Person</title><g class="iconic-lg iconic-container iconic-person-genderless" data-width="128" data-height="128"><path d="M87.9 80c-.8 0-2 .4-2.7.9C79.1 85.5 71.9 88 64 88c-7.5 0-14.5-2.5-20.5-7.1-.7-.5-1.8-.9-2.7-.9H32C14.3 80 0 94.3 0 112v14.5c0 .8.7 1.5 1.5 1.5h125c.8 0 1.5-.7 1.5-1.5V112c0-17.7-14.3-32-32-32h-8.1z" class="iconic-person-body iconic-property-fill"/><path d="M96 35c0 22.1-10.1 45-32 45-20.1 0-32-22.9-32-45S46.3 0 64 0s32 12.9 32 35z" class="iconic-person-head iconic-property-fill"/></g><script type="application/ecmascript">//<![CDATA[
var iconicApis=window._Iconic?window._Iconic.smartIconApis:{};iconicApis["person"]=iconicApis["person"]||function(t){var e=function(e){t.setAttribute("data-gender",e);var i,r,n,a=t.querySelectorAll(".iconic-person-genderless"),c=t.querySelectorAll(".iconic-person-female"),o=t.querySelectorAll(".iconic-person-male");switch(i=r=n="none",e){case"female":i="inline";break;case"male":n="inline";break;default:r="inline"}for(var s=0;s<a.length;s++)a[s].setAttribute("display",r),c[s].setAttribute("display",i),o[s].setAttribute("display",n)},i=function(){var i=t.getAttribute("data-gender");i&amp;&amp;e(i)};return{update:i,setGender:e}};
//]]></script></svg>