<svg xmlns="http://www.w3.org/2000/svg" class="iconic iconic-reload" width="128" height="128" viewBox="0 0 128 128"><title class="iconic-metadata">Reload</title><g class="iconic-reload-lg iconic-container iconic-lg" data-width="127" data-height="127"><path stroke="#000" stroke-width="8" d="M123.956 63.96c0 22.534-13.073 43.6-33.2 53.69-20.762 10.41-46.376 7.57-64.435-6.97C8.6 96.41.414 72.727 5.48 50.553 10.503 28.572 28.05 10.81 50.002 5.6 70.13.825 91.75 6.9 106.382 21.533" class="iconic-reload-line iconic-property-stroke" fill="none"/><path d="M121.64 36.43l-5.37-24.938c-.173-.81-.79-.992-1.375-.406l-19.88 19.88c-.585.585-.402 1.197.408 1.367l25.064 5.255c.81.17 1.327-.35 1.152-1.16z" class="iconic-reload-arrowhead iconic-property-fill"/></g></svg>