<svg xmlns="http://www.w3.org/2000/svg" data-icon="thumb" width="128" height="128" class="iconic iconic-thumb" viewBox="0 0 128 128"><title>Thumb</title><g class="iconic-lg iconic-container iconic-thumbs-up" data-width="126" data-height="128"><path d="M1 52l10 76h22V52H1zm26 72c-1.1 0-2-.9-2-2s.9-2 2-2 2 .9 2 2-.9 2-2 2z" class="iconic-thumbs-up-cuff iconic-property-accent iconic-property-fill"/><path d="M118 54H91c-5 0-9-4.5-9-9s5-15 5-31V9c0-5-4-9-9-9h-6c-1.7 0-3 1.3-3 3v11c0 12.1-11.6 27.2-19.3 34.7C46.4 52.1 42 54 37 54v68s8 4 20 4h43c3.7 0 6.9-2.3 8.3-5.5 0 0 15-42.1 18.1-54.5.4-1.4.6-2.5.6-3 0-5.1-4-9-9-9z" class="iconic-thumbs-up-hand iconic-property-fill"/></g><script type="application/ecmascript">//<![CDATA[
var iconicApis=window._Iconic?window._Iconic.smartIconApis:{};iconicApis["thumb"]=iconicApis["thumb"]||function(t){var e=function(e){t.setAttribute("data-state",e);var i,r,n=t.querySelectorAll(".iconic-thumbs-up"),a=t.querySelectorAll(".iconic-thumbs-down");i=r="none","down"===e?r="inline":i="inline";for(var c=0;c<n.length;c++)n[c].setAttribute("display",i),a[c].setAttribute("display",r)},i=function(){var i=t.getAttribute("data-state");i&amp;&amp;e(i)};return{update:i,setState:e}};
//]]></script></svg>