<svg xmlns="http://www.w3.org/2000/svg" data-icon="zoom" width="128" height="128" class="iconic iconic-zoom" viewBox="0 0 128 128"><title>Zoom</title><defs><clipPath id="iconic-size-lg-zoom-in-clip-0"><path d="M95.7 83.7L89 90.4 87.6 89l6.7-6.7L90 78 78 90l38 38 12-12z"/></clipPath><clipPath id="iconic-size-lg-zoom-out-clip-0"><path d="M95.7 83.7L89 90.4 87.6 89l6.7-6.7L90 78 78 90l38 38 12-12z"/></clipPath></defs><g class="iconic-lg iconic-container iconic-zoom-in" data-width="128" data-height="128"><path stroke="#000" stroke-width="8" stroke-miterlimit="10" class="iconic-zoom-in-handle iconic-zoom-in-handle-connector iconic-property-stroke" d="M85 85l-7.9-7.9" fill="none"/><path d="M126.9 117.1L117 127c-.6.6-1.5.6-2.1 0L79.1 91.1c-.6-.6-.6-1.5 0-2.1l9.9-9.9c.6-.6 1.5-.6 2.1 0L127 115c.5.5.5 1.5-.1 2.1z" clip-path="url(#iconic-size-lg-zoom-in-clip-0)" class="iconic-zoom-in-handle iconic-property-fill"/><circle stroke="#000" stroke-width="8" stroke-miterlimit="10" cx="46" cy="46" r="42" class="iconic-zoom-in-rim iconic-property-stroke" fill="none"/><path stroke="#000" stroke-width="4" stroke-linecap="square" stroke-miterlimit="10" class="iconic-zoom-in-plus iconic-property-accent iconic-property-stroke" d="M46 34v24m12-12H34" fill="none"/></g><script type="application/ecmascript">//<![CDATA[
var iconicApis=window._Iconic?window._Iconic.smartIconApis:{};iconicApis["zoom"]=iconicApis["zoom"]||function(t){var e=function(e){t.setAttribute("data-state",e);var i,r,n=t.querySelectorAll(".iconic-zoom-in"),a=t.querySelectorAll(".iconic-zoom-out");i=r="none","out"===e?r="inline":i="inline";for(var c=0;c<n.length;c++)n[c].setAttribute("display",i),a[c].setAttribute("display",r)},i=function(){var i=t.getAttribute("data-state");i&amp;&amp;e(i)};return{update:i,setState:e}};
//]]></script></svg>